<?xml version="1.0" encoding="UTF-8"?>
<!-- Generator: Blender, SVG Export for Grease Pencil - v1.0 -->
<!DOCTYPE svg PUBLIC "-//W3C//DTD SVG 1.1//EN" "http://www.w3.org/Graphics/SVG/1.1/DTD/svg11.dtd">
<svg version="1.0" x="0px" y="0px" xmlns="http://www.w3.org/2000/svg" width="1920px" height="1920px" viewBox="0 0 1920 1920">
	<g id="blender_frame_1">
		<g id="blender_object_GPencil">
			<!--Layer: Circle_Fills-->
			<g id="Circle_Fills">
				<polygon fill="#4241E7" stroke="none" fill-opacity="1" points="746.647034,1646.674561 688.407104,1625.791748 752.915955,1467.652832 797.322815,1483.575439" />
				<polygon fill="#4241E7" stroke="none" fill-opacity="1" points="552.510132,367.554565 604.948059,334.717896 689.280151,483.235474 649.297302,508.272705" />
				<polygon fill="#4241E7" stroke="none" fill-opacity="1" points="1606.884399,646.024414 1631.480591,702.796021 1471.990112,763.887451 1453.235962,720.600220" />
				<polygon fill="#4241E7" stroke="none" fill-opacity="1" points="806.466614,1662.473511 746.647034,1646.674561 797.322815,1483.575439 842.933960,1495.621826" />
				<polygon fill="#4241E7" stroke="none" fill-opacity="1" points="503.089020,404.777588 552.510132,367.554565 649.297302,508.272705 611.614746,536.654541" />
				<polygon fill="#4241E7" stroke="none" fill-opacity="1" points="1577.498657,591.577393 1606.884399,646.024414 1453.235962,720.600220 1430.830078,679.085571" />
				<polygon fill="#4241E7" stroke="none" fill-opacity="1" points="867.422974,1673.071533 806.466614,1662.473511 842.933960,1495.621826 889.411865,1503.702637" />
				<polygon fill="#4241E7" stroke="none" fill-opacity="1" points="457.050751,446.111206 503.089020,404.777588 611.614746,536.654541 576.511597,568.170532" />
				<polygon fill="#4241E7" stroke="none" fill-opacity="1" points="1543.541504,539.858154 1577.498657,591.577393 1430.830078,679.085571 1404.938232,639.650635" />
				<polygon fill="#4241E7" stroke="none" fill-opacity="1" points="929.064636,1678.390259 867.422974,1673.071533 889.411865,1503.702637 936.412415,1507.758057" />
				<polygon fill="#4241E7" stroke="none" fill-opacity="1" points="414.736176,491.249268 457.050751,446.111206 576.511597,568.170532 544.247559,602.587524" />
				<polygon fill="#4241E7" stroke="none" fill-opacity="1" points="1505.263794,491.249268 1543.541504,539.858154 1404.938232,639.650635 1375.752441,602.587524" />
				<polygon fill="#4241E7" stroke="none" fill-opacity="1" points="990.935303,1678.390259 929.064636,1678.390259 936.412415,1507.758057 983.587524,1507.758057" />
				<polygon fill="#4241E7" stroke="none" fill-opacity="1" points="376.458557,539.858154 414.736176,491.249268 544.247559,602.587524 515.061646,639.650635" />
				<polygon fill="#4241E7" stroke="none" fill-opacity="1" points="1462.949341,446.111206 1505.263794,491.249268 1375.752441,602.587524 1343.488403,568.170532" />
				<polygon fill="#4241E7" stroke="none" fill-opacity="1" points="1052.577148,1673.071533 990.935303,1678.390259 983.587524,1507.758057 1030.588135,1503.702637" />
				<polygon fill="#4241E7" stroke="none" fill-opacity="1" points="342.501251,591.577393 376.458557,539.858154 515.061646,639.650635 489.169922,679.085571" />
				<polygon fill="#4241E7" stroke="none" fill-opacity="1" points="1416.911011,404.777588 1462.949341,446.111206 1343.488403,568.170532 1308.385254,536.654541" />
				<polygon fill="#4241E7" stroke="none" fill-opacity="1" points="1113.533325,1662.473511 1052.577148,1673.071533 1030.588135,1503.702637 1077.065918,1495.621826" />
				<polygon fill="#4241E7" stroke="none" fill-opacity="1" points="313.115662,646.024414 342.501251,591.577393 489.169922,679.085571 466.763977,720.600220" />
				<polygon fill="#4241E7" stroke="none" fill-opacity="1" points="1367.489868,367.554565 1416.911011,404.777588 1308.385254,536.654541 1270.702759,508.272705" />
				<polygon fill="#4241E7" stroke="none" fill-opacity="1" points="1173.352905,1646.674561 1113.533325,1662.473511 1077.065918,1495.621826 1122.677246,1483.575439" />
				<polygon fill="#4241E7" stroke="none" fill-opacity="1" points="288.519409,702.796021 313.115662,646.024414 466.763977,720.600220 448.009888,763.887451" />
				<polygon fill="#4241E7" stroke="none" fill-opacity="1" points="1315.051880,334.717896 1367.489868,367.554565 1270.702759,508.272705 1230.719849,483.235474" />
				<polygon fill="#4241E7" stroke="none" fill-opacity="1" points="1231.592896,1625.791748 1173.352905,1646.674561 1122.677246,1483.575439 1167.083984,1467.652832" />
				<polygon fill="#4241E7" stroke="none" fill-opacity="1" points="268.894562,761.471802 288.519409,702.796021 448.009888,763.887451 433.046326,808.626465" />
				<polygon fill="#4241E7" stroke="none" fill-opacity="1" points="1259.985229,306.510620 1315.051880,334.717896 1230.719849,483.235474 1188.732666,461.728027" />
				<polygon fill="#4241E7" stroke="none" fill-opacity="1" points="1287.822144,1599.979736 1231.592896,1625.791748 1167.083984,1467.652832 1209.957642,1447.971680" />
				<polygon fill="#4241E7" stroke="none" fill-opacity="1" points="254.386368,821.617432 268.894562,761.471802 433.046326,808.626465 421.984131,854.486328" />
				<polygon fill="#4241E7" stroke="none" fill-opacity="1" points="1202.697632,283.141602 1259.985229,306.510620 1188.732666,461.728027 1145.052002,443.909546" />
				<polygon fill="#4241E7" stroke="none" fill-opacity="1" points="1341.624268,1569.429565 1287.822144,1599.979736 1209.957642,1447.971680 1250.980713,1424.677612" />
				<polygon fill="#4241E7" stroke="none" fill-opacity="1" points="245.102295,882.787598 254.386368,821.617432 421.984131,854.486328 414.905212,901.127380" />
				<polygon fill="#4241E7" stroke="none" fill-opacity="1" points="1143.613159,264.783813 1202.697632,283.141602 1145.052002,443.909546 1100.001343,429.912231" />
				<polygon fill="#4241E7" stroke="none" fill-opacity="1" points="1392.600952,1534.367310 1341.624268,1569.429565 1250.980713,1424.677612 1289.849365,1397.943359" />
				<polygon fill="#4241E7" stroke="none" fill-opacity="1" points="241.111160,944.529541 245.102295,882.787598 414.905212,901.127380 411.862061,948.204224" />
				<polygon fill="#4241E7" stroke="none" fill-opacity="1" points="1083.169189,251.573120 1143.613159,264.783813 1100.001343,429.912231 1053.913940,419.839111" />
				<polygon fill="#4241E7" stroke="none" fill-opacity="1" points="1440.374878,1495.052612 1392.600952,1534.367310 1289.849365,1397.943359 1326.275879,1367.966797" />
				<polygon fill="#4241E7" stroke="none" fill-opacity="1" points="242.442398,1006.385864 241.111160,944.529541 411.862061,948.204224 412.877014,995.368469" />
				<polygon fill="#4241E7" stroke="none" fill-opacity="1" points="1021.813416,243.607300 1083.169189,251.573120 1053.913940,419.839111 1007.131470,413.765503" />
				<polygon fill="#4241E7" stroke="none" fill-opacity="1" points="1484.592163,1451.776611 1440.374878,1495.052612 1326.275879,1367.966797 1359.990723,1334.969727" />
				<polygon fill="#4241E7" stroke="none" fill-opacity="1" points="249.086151,1067.898926 242.442398,1006.385864 412.877014,995.368469 417.942871,1042.270752" />
				<polygon fill="#4241E7" stroke="none" fill-opacity="1" points="960.000000,240.945557 1021.813416,243.607300 1007.131470,413.765503 960.000000,411.735962" />
				<polygon fill="#4241E7" stroke="none" fill-opacity="1" points="1524.925659,1404.859619 1484.592163,1451.776611 1359.990723,1334.969727 1390.744141,1299.196533" />
				<polygon fill="#4241E7" stroke="none" fill-opacity="1" points="260.993286,1128.613037 249.086151,1067.898926 417.942871,1042.270752 427.021759,1088.564209" />
				<polygon fill="#4241E7" stroke="none" fill-opacity="1" points="1561.076660,1354.649170 1524.925659,1404.859619 1390.744141,1299.196533 1418.308472,1260.912109" />
				<polygon fill="#4241E7" stroke="none" fill-opacity="1" points="278.075592,1188.078857 260.993286,1128.613037 427.021759,1088.564209 440.046661,1133.905518" />
				<polygon fill="#4241E7" stroke="none" fill-opacity="1" points="1592.777466,1301.516846 1561.076660,1354.649170 1418.308472,1260.912109 1442.479736,1220.399658" />
				<polygon fill="#4241E7" stroke="none" fill-opacity="1" points="300.206635,1245.855957 278.075592,1188.078857 440.046661,1133.905518 456.921112,1177.959473" />
				<polygon fill="#4241E7" stroke="none" fill-opacity="1" points="1619.793335,1245.855957 1592.777466,1301.516846 1442.479736,1220.399658 1463.078857,1177.959473" />
				<polygon fill="#4241E7" stroke="none" fill-opacity="1" points="327.222534,1301.516846 300.206635,1245.855957 456.921112,1177.959473 477.520233,1220.399658" />
				<polygon fill="#4241E7" stroke="none" fill-opacity="1" points="1641.924316,1188.078857 1619.793335,1245.855957 1463.078857,1177.959473 1479.953369,1133.905518" />
				<polygon fill="#4241E7" stroke="none" fill-opacity="1" points="358.923340,1354.649170 327.222534,1301.516846 477.520233,1220.399658 501.691467,1260.912109" />
				<polygon fill="#4241E7" stroke="none" fill-opacity="1" points="1659.006714,1128.613037 1641.924316,1188.078857 1479.953369,1133.905518 1492.978271,1088.564209" />
				<polygon fill="#4241E7" stroke="none" fill-opacity="1" points="395.074310,1404.859619 358.923340,1354.649170 501.691467,1260.912109 529.255798,1299.196533" />
				<polygon fill="#4241E7" stroke="none" fill-opacity="1" points="1670.913818,1067.898926 1659.006714,1128.613037 1492.978271,1088.564209 1502.057129,1042.270752" />
				<polygon fill="#4241E7" stroke="none" fill-opacity="1" points="435.407806,1451.776611 395.074310,1404.859619 529.255798,1299.196533 560.009277,1334.969727" />
				<polygon fill="#4241E7" stroke="none" fill-opacity="1" points="898.186584,243.607300 960.000000,240.945557 960.000000,411.735962 912.868530,413.765503" />
				<polygon fill="#4241E7" stroke="none" fill-opacity="1" points="1677.557617,1006.385864 1670.913818,1067.898926 1502.057129,1042.270752 1507.123047,995.368469" />
				<polygon fill="#4241E7" stroke="none" fill-opacity="1" points="479.625092,1495.052612 435.407806,1451.776611 560.009277,1334.969727 593.723999,1367.966797" />
				<polygon fill="#4241E7" stroke="none" fill-opacity="1" points="836.830750,251.573120 898.186584,243.607300 912.868530,413.765503 866.085999,419.839111" />
				<polygon fill="#4241E7" stroke="none" fill-opacity="1" points="1678.888794,944.529541 1677.557617,1006.385864 1507.123047,995.368469 1508.137939,948.204224" />
				<polygon fill="#4241E7" stroke="none" fill-opacity="1" points="527.399048,1534.367310 479.625092,1495.052612 593.723999,1367.966797 630.150635,1397.943359" />
				<polygon fill="#4241E7" stroke="none" fill-opacity="1" points="776.386841,264.783813 836.830750,251.573120 866.085999,419.839111 819.998718,429.912231" />
				<polygon fill="#4241E7" stroke="none" fill-opacity="1" points="1674.897705,882.787598 1678.888794,944.529541 1508.137939,948.204224 1505.094849,901.127380" />
				<polygon fill="#4241E7" stroke="none" fill-opacity="1" points="578.375732,1569.429565 527.399048,1534.367310 630.150635,1397.943359 669.019287,1424.677612" />
				<polygon fill="#4241E7" stroke="none" fill-opacity="1" points="717.302368,283.141602 776.386841,264.783813 819.998718,429.912231 774.948059,443.909546" />
				<polygon fill="#4241E7" stroke="none" fill-opacity="1" points="1665.613647,821.617432 1674.897705,882.787598 1505.094849,901.127380 1498.015869,854.486328" />
				<polygon fill="#4241E7" stroke="none" fill-opacity="1" points="632.177856,1599.979736 578.375732,1569.429565 669.019287,1424.677612 710.042358,1447.971680" />
				<polygon fill="#4241E7" stroke="none" fill-opacity="1" points="660.014771,306.510620 717.302368,283.141602 774.948059,443.909546 731.267395,461.728027" />
				<polygon fill="#4241E7" stroke="none" fill-opacity="1" points="1651.105469,761.471802 1665.613647,821.617432 1498.015869,854.486328 1486.953735,808.626465" />
				<polygon fill="#4241E7" stroke="none" fill-opacity="1" points="688.407104,1625.791748 632.177856,1599.979736 710.042358,1447.971680 752.915955,1467.652832" />
				<polygon fill="#4241E7" stroke="none" fill-opacity="1" points="604.948059,334.717896 660.014771,306.510620 731.267395,461.728027 689.280151,483.235474" />
				<polygon fill="#4241E7" stroke="none" fill-opacity="1" points="1631.480591,702.796021 1651.105469,761.471802 1486.953735,808.626465 1471.990112,763.887451" />
			</g>
			<!--Layer: Circle_Lines-->
			<g id="Circle_Lines">
				<polyline stroke="#000000" stroke-opacity="1" fill="none" stroke-linecap="round" stroke-width="63" points="898.272339,244.601685 960.000000,241.943604 1021.727600,244.601685 1082.998291,252.556396 1143.358276,265.748779 1202.360840,284.081055 1259.568848,307.417603 1314.559082,335.585815 1366.924316,368.376831 1416.276855,405.548218 1462.251221,446.824463 1504.507080,491.900024 1542.731567,540.441284 1576.641602,592.088745 1605.986450,646.460205 1630.548584,703.152954 1650.146240,761.747314 1664.634277,821.809448 1673.905396,882.894897 1677.891113,944.550903 1676.561768,1006.321533 1669.927124,1067.749023 1658.036499,1128.378906 1640.977905,1187.762207 1618.877563,1245.459229 1591.899292,1301.042725 1560.242432,1354.101318 1524.141602,1404.242188 1483.864014,1451.094116 1439.708130,1494.309937 1392.000488,1533.570068 1341.094604,1568.583618 1287.367188,1599.091431 1231.215942,1624.867676 1173.056885,1645.721436 1113.320312,1661.498413 1052.448608,1672.081787 990.892395,1677.393066 929.107605,1677.393066 867.551392,1672.081787 806.679810,1661.498413 746.943176,1645.721436 688.784058,1624.867676 632.632874,1599.091431 578.905457,1568.583618 527.999512,1533.570068 480.291809,1494.309937 436.135925,1451.094116 395.858459,1404.242188 359.757629,1354.101318 328.100800,1301.042725 301.122375,1245.459229 279.022064,1187.762207 261.963501,1128.378906 250.072861,1067.749023 243.438324,1006.321533 242.108978,944.550903 246.094543,882.894897 255.365753,821.809448 269.853760,761.747314 289.451416,703.152954 314.013519,646.460205 343.358337,592.088745 377.268494,540.441284 415.492981,491.900024 457.748779,446.824463 503.723206,405.548218 553.075684,368.376831 605.440857,335.585815 660.431091,307.417603 717.639221,284.081055 776.641724,265.748779 837.001709,252.556396 898.272339,244.601685" />
				<polyline stroke="#000000" stroke-opacity="1" fill="none" stroke-linecap="round" stroke-width="63" points="912.933960,414.523682 960.000000,412.496948 1007.066101,414.523682 1053.783691,420.588867 1099.807007,430.647827 1144.795044,444.625854 1188.415161,462.419556 1230.343994,483.897217 1270.271362,508.899780 1307.901733,537.242065 1342.956177,568.714355 1375.175415,603.083496 1404.320801,640.095337 1430.176636,679.475464 1452.551392,720.932495 1471.279419,764.159546 1486.222168,808.836548 1497.269043,854.632812 1504.338257,901.209045 1507.377075,948.220581 1506.363647,995.319397 1501.304688,1042.156738 1492.238525,1088.385742 1479.231689,1133.664185 1462.380615,1177.656982 1441.810059,1220.038330 1417.672485,1260.494385 1390.146362,1298.725830 1359.435547,1334.449219 1325.767578,1367.400513 1289.391479,1397.335449 1250.576660,1424.032715 1209.610718,1447.294312 1166.796631,1466.948120 1122.451416,1482.848633 1076.903564,1494.878296 1030.490112,1502.947876 983.554810,1506.997681 936.445129,1506.997681 889.509888,1502.947876 843.096497,1494.878296 797.548584,1482.848633 753.203430,1466.948120 710.389282,1447.294312 669.423218,1424.032715 630.608459,1397.335449 594.232422,1367.400513 560.564453,1334.449219 529.853638,1298.725830 502.327545,1260.494385 478.189880,1220.038330 457.619354,1177.656982 440.768341,1133.664185 427.761505,1088.385742 418.695251,1042.156738 413.636444,995.319397 412.622864,948.220581 415.661774,901.209045 422.730896,854.632812 433.777710,808.836548 448.720490,764.159546 467.448578,720.932495 489.823364,679.475464 515.679260,640.095337 544.824646,603.083496 577.043823,568.714355 612.098267,537.242065 649.728577,508.899780 689.656006,483.897217 731.584839,462.419556 775.204956,444.625854 820.192993,430.647827 866.216370,420.588867 912.933960,414.523682" />
				<polyline stroke="#000000" stroke-opacity="1" fill="none" stroke-linecap="round" stroke-width="63" points="688.784058,1624.867676 753.203430,1466.948120" />
				<polyline stroke="#000000" stroke-opacity="1" fill="none" stroke-linecap="round" stroke-width="63" points="797.548584,1482.848633 746.943176,1645.721436" />
				<polyline stroke="#000000" stroke-opacity="1" fill="none" stroke-linecap="round" stroke-width="63" points="605.440857,335.585815 689.656006,483.897217" />
				<polyline stroke="#000000" stroke-opacity="1" fill="none" stroke-linecap="round" stroke-width="63" points="649.728577,508.899780 553.075684,368.376831" />
				<polyline stroke="#000000" stroke-opacity="1" fill="none" stroke-linecap="round" stroke-width="63" points="1630.548584,703.152954 1471.279419,764.159546" />
				<polyline stroke="#000000" stroke-opacity="1" fill="none" stroke-linecap="round" stroke-width="63" points="1452.551392,720.932495 1605.986450,646.460205" />
				<polyline stroke="#000000" stroke-opacity="1" fill="none" stroke-linecap="round" stroke-width="63" points="843.096497,1494.878296 806.679810,1661.498413" />
				<polyline stroke="#000000" stroke-opacity="1" fill="none" stroke-linecap="round" stroke-width="63" points="612.098267,537.242065 503.723206,405.548218" />
				<polyline stroke="#000000" stroke-opacity="1" fill="none" stroke-linecap="round" stroke-width="63" points="1430.176636,679.475464 1576.641602,592.088745" />
				<polyline stroke="#000000" stroke-opacity="1" fill="none" stroke-linecap="round" stroke-width="63" points="889.509888,1502.947876 867.551392,1672.081787" />
				<polyline stroke="#000000" stroke-opacity="1" fill="none" stroke-linecap="round" stroke-width="63" points="577.043823,568.714355 457.748779,446.824463" />
				<polyline stroke="#000000" stroke-opacity="1" fill="none" stroke-linecap="round" stroke-width="63" points="1404.320801,640.095337 1542.731567,540.441284" />
				<polyline stroke="#000000" stroke-opacity="1" fill="none" stroke-linecap="round" stroke-width="63" points="936.445129,1506.997681 929.107605,1677.393066" />
				<polyline stroke="#000000" stroke-opacity="1" fill="none" stroke-linecap="round" stroke-width="63" points="544.824646,603.083496 415.492981,491.900024" />
				<polyline stroke="#000000" stroke-opacity="1" fill="none" stroke-linecap="round" stroke-width="63" points="1375.175415,603.083496 1504.507080,491.900024" />
				<polyline stroke="#000000" stroke-opacity="1" fill="none" stroke-linecap="round" stroke-width="63" points="983.554810,1506.997681 990.892395,1677.393066" />
				<polyline stroke="#000000" stroke-opacity="1" fill="none" stroke-linecap="round" stroke-width="63" points="515.679260,640.095337 377.268494,540.441284" />
				<polyline stroke="#000000" stroke-opacity="1" fill="none" stroke-linecap="round" stroke-width="63" points="1342.956177,568.714355 1462.251221,446.824463" />
				<polyline stroke="#000000" stroke-opacity="1" fill="none" stroke-linecap="round" stroke-width="63" points="1030.490112,1502.947876 1052.448608,1672.081787" />
				<polyline stroke="#000000" stroke-opacity="1" fill="none" stroke-linecap="round" stroke-width="63" points="489.823364,679.475464 343.358337,592.088745" />
				<polyline stroke="#000000" stroke-opacity="1" fill="none" stroke-linecap="round" stroke-width="63" points="1307.901733,537.242065 1416.276855,405.548218" />
				<polyline stroke="#000000" stroke-opacity="1" fill="none" stroke-linecap="round" stroke-width="63" points="1076.903564,1494.878296 1113.320312,1661.498413" />
				<polyline stroke="#000000" stroke-opacity="1" fill="none" stroke-linecap="round" stroke-width="63" points="467.448578,720.932495 314.013519,646.460205" />
				<polyline stroke="#000000" stroke-opacity="1" fill="none" stroke-linecap="round" stroke-width="63" points="1270.271362,508.899780 1366.924316,368.376831" />
				<polyline stroke="#000000" stroke-opacity="1" fill="none" stroke-linecap="round" stroke-width="63" points="1122.451416,1482.848633 1173.056885,1645.721436" />
				<polyline stroke="#000000" stroke-opacity="1" fill="none" stroke-linecap="round" stroke-width="63" points="448.720490,764.159546 289.451416,703.152954" />
				<polyline stroke="#000000" stroke-opacity="1" fill="none" stroke-linecap="round" stroke-width="63" points="1230.343994,483.897217 1314.559082,335.585815" />
				<polyline stroke="#000000" stroke-opacity="1" fill="none" stroke-linecap="round" stroke-width="63" points="1166.796631,1466.948120 1231.215942,1624.867676" />
				<polyline stroke="#000000" stroke-opacity="1" fill="none" stroke-linecap="round" stroke-width="63" points="433.777710,808.836548 269.853760,761.747314" />
				<polyline stroke="#000000" stroke-opacity="1" fill="none" stroke-linecap="round" stroke-width="63" points="1188.415161,462.419556 1259.568848,307.417603" />
				<polyline stroke="#000000" stroke-opacity="1" fill="none" stroke-linecap="round" stroke-width="63" points="1209.610718,1447.294312 1287.367188,1599.091431" />
				<polyline stroke="#000000" stroke-opacity="1" fill="none" stroke-linecap="round" stroke-width="63" points="422.730896,854.632812 255.365753,821.809448" />
				<polyline stroke="#000000" stroke-opacity="1" fill="none" stroke-linecap="round" stroke-width="63" points="1144.795044,444.625854 1202.360840,284.081055" />
				<polyline stroke="#000000" stroke-opacity="1" fill="none" stroke-linecap="round" stroke-width="63" points="1250.576660,1424.032715 1341.094604,1568.583618" />
				<polyline stroke="#000000" stroke-opacity="1" fill="none" stroke-linecap="round" stroke-width="63" points="415.661774,901.209045 246.094543,882.894897" />
				<polyline stroke="#000000" stroke-opacity="1" fill="none" stroke-linecap="round" stroke-width="63" points="1099.807007,430.647827 1143.358276,265.748779" />
				<polyline stroke="#000000" stroke-opacity="1" fill="none" stroke-linecap="round" stroke-width="63" points="1289.391479,1397.335449 1392.000488,1533.570068" />
				<polyline stroke="#000000" stroke-opacity="1" fill="none" stroke-linecap="round" stroke-width="63" points="412.622864,948.220581 242.108978,944.550903" />
				<polyline stroke="#000000" stroke-opacity="1" fill="none" stroke-linecap="round" stroke-width="63" points="1053.783691,420.588867 1082.998291,252.556396" />
				<polyline stroke="#000000" stroke-opacity="1" fill="none" stroke-linecap="round" stroke-width="63" points="1325.767578,1367.400513 1439.708130,1494.309937" />
				<polyline stroke="#000000" stroke-opacity="1" fill="none" stroke-linecap="round" stroke-width="63" points="413.636444,995.319397 243.438324,1006.321533" />
				<polyline stroke="#000000" stroke-opacity="1" fill="none" stroke-linecap="round" stroke-width="63" points="1007.066101,414.523682 1021.727600,244.601685" />
				<polyline stroke="#000000" stroke-opacity="1" fill="none" stroke-linecap="round" stroke-width="63" points="1359.435547,1334.449219 1483.864014,1451.094116" />
				<polyline stroke="#000000" stroke-opacity="1" fill="none" stroke-linecap="round" stroke-width="63" points="418.695251,1042.156738 250.072861,1067.749023" />
				<polyline stroke="#000000" stroke-opacity="1" fill="none" stroke-linecap="round" stroke-width="63" points="960.000000,412.496948 960.000000,241.943604" />
				<polyline stroke="#000000" stroke-opacity="1" fill="none" stroke-linecap="round" stroke-width="63" points="1390.146362,1298.725830 1524.141602,1404.242188" />
				<polyline stroke="#000000" stroke-opacity="1" fill="none" stroke-linecap="round" stroke-width="63" points="427.761505,1088.385742 261.963501,1128.378906" />
				<polyline stroke="#000000" stroke-opacity="1" fill="none" stroke-linecap="round" stroke-width="63" points="1417.672485,1260.494385 1560.242432,1354.101318" />
				<polyline stroke="#000000" stroke-opacity="1" fill="none" stroke-linecap="round" stroke-width="63" points="440.768341,1133.664185 279.022064,1187.762207" />
				<polyline stroke="#000000" stroke-opacity="1" fill="none" stroke-linecap="round" stroke-width="63" points="1441.810059,1220.038330 1591.899292,1301.042725" />
				<polyline stroke="#000000" stroke-opacity="1" fill="none" stroke-linecap="round" stroke-width="63" points="457.619354,1177.656982 301.122375,1245.459229" />
				<polyline stroke="#000000" stroke-opacity="1" fill="none" stroke-linecap="round" stroke-width="63" points="1462.380615,1177.656982 1618.877563,1245.459229" />
				<polyline stroke="#000000" stroke-opacity="1" fill="none" stroke-linecap="round" stroke-width="63" points="478.189880,1220.038330 328.100800,1301.042725" />
				<polyline stroke="#000000" stroke-opacity="1" fill="none" stroke-linecap="round" stroke-width="63" points="1479.231689,1133.664185 1640.977905,1187.762207" />
				<polyline stroke="#000000" stroke-opacity="1" fill="none" stroke-linecap="round" stroke-width="63" points="502.327545,1260.494385 359.757629,1354.101318" />
				<polyline stroke="#000000" stroke-opacity="1" fill="none" stroke-linecap="round" stroke-width="63" points="1492.238525,1088.385742 1658.036499,1128.378906" />
				<polyline stroke="#000000" stroke-opacity="1" fill="none" stroke-linecap="round" stroke-width="63" points="529.853638,1298.725830 395.858459,1404.242188" />
				<polyline stroke="#000000" stroke-opacity="1" fill="none" stroke-linecap="round" stroke-width="63" points="1501.304688,1042.156738 1669.927124,1067.749023" />
				<polyline stroke="#000000" stroke-opacity="1" fill="none" stroke-linecap="round" stroke-width="63" points="560.564453,1334.449219 436.135925,1451.094116" />
				<polyline stroke="#000000" stroke-opacity="1" fill="none" stroke-linecap="round" stroke-width="63" points="912.933960,414.523682 898.272339,244.601685" />
				<polyline stroke="#000000" stroke-opacity="1" fill="none" stroke-linecap="round" stroke-width="63" points="1506.363647,995.319397 1676.561768,1006.321533" />
				<polyline stroke="#000000" stroke-opacity="1" fill="none" stroke-linecap="round" stroke-width="63" points="594.232422,1367.400513 480.291809,1494.309937" />
				<polyline stroke="#000000" stroke-opacity="1" fill="none" stroke-linecap="round" stroke-width="63" points="866.216370,420.588867 837.001709,252.556396" />
				<polyline stroke="#000000" stroke-opacity="1" fill="none" stroke-linecap="round" stroke-width="63" points="1507.377075,948.220581 1677.891113,944.550903" />
				<polyline stroke="#000000" stroke-opacity="1" fill="none" stroke-linecap="round" stroke-width="63" points="630.608459,1397.335449 527.999512,1533.570068" />
				<polyline stroke="#000000" stroke-opacity="1" fill="none" stroke-linecap="round" stroke-width="63" points="820.192993,430.647827 776.641724,265.748779" />
				<polyline stroke="#000000" stroke-opacity="1" fill="none" stroke-linecap="round" stroke-width="63" points="1504.338257,901.209045 1673.905396,882.894897" />
				<polyline stroke="#000000" stroke-opacity="1" fill="none" stroke-linecap="round" stroke-width="63" points="669.423218,1424.032715 578.905457,1568.583618" />
				<polyline stroke="#000000" stroke-opacity="1" fill="none" stroke-linecap="round" stroke-width="63" points="775.204956,444.625854 717.639221,284.081055" />
				<polyline stroke="#000000" stroke-opacity="1" fill="none" stroke-linecap="round" stroke-width="63" points="1497.269043,854.632812 1664.634277,821.809448" />
				<polyline stroke="#000000" stroke-opacity="1" fill="none" stroke-linecap="round" stroke-width="63" points="710.389282,1447.294312 632.632874,1599.091431" />
				<polyline stroke="#000000" stroke-opacity="1" fill="none" stroke-linecap="round" stroke-width="63" points="731.584839,462.419556 660.431091,307.417603" />
				<polyline stroke="#000000" stroke-opacity="1" fill="none" stroke-linecap="round" stroke-width="63" points="1486.222168,808.836548 1650.146240,761.747314" />
			</g>
		</g>
	</g>
	<g id="blender_frame_1">
		<g id="blender_object_GPencil.001">
			<!--Layer: Circle_001_Fills-->
			<g id="Circle_001_Fills">
				<polygon fill="#E77CE3" stroke="none" fill-opacity="1" points="834.755188,1363.099854 800.566467,1350.840942 886.678589,1139.743164 902.401489,1145.380859" />
				<polygon fill="#E77CE3" stroke="none" fill-opacity="1" points="720.790649,612.216309 751.573364,592.940186 864.147278,791.194214 849.990723,800.059204" />
				<polygon fill="#E77CE3" stroke="none" fill-opacity="1" points="1339.741333,775.686890 1354.180054,809.013550 1141.278442,890.563721 1134.638184,875.237183" />
				<polygon fill="#E77CE3" stroke="none" fill-opacity="1" points="869.871155,1372.374268 834.755188,1363.099854 902.401489,1145.380859 918.550903,1149.645996" />
				<polygon fill="#E77CE3" stroke="none" fill-opacity="1" points="691.778992,634.067505 720.790649,612.216309 849.990723,800.059204 836.648621,810.108154" />
				<polygon fill="#E77CE3" stroke="none" fill-opacity="1" points="1322.491211,743.724731 1339.741333,775.686890 1134.638184,875.237183 1126.704956,860.538208" />
				<polygon fill="#E77CE3" stroke="none" fill-opacity="1" points="905.654358,1378.595581 869.871155,1372.374268 918.550903,1149.645996 935.007141,1152.507080" />
				<polygon fill="#E77CE3" stroke="none" fill-opacity="1" points="664.753052,658.331421 691.778992,634.067505 836.648621,810.108154 824.219666,821.266968" />
				<polygon fill="#E77CE3" stroke="none" fill-opacity="1" points="1302.557129,713.363892 1322.491211,743.724731 1126.704956,860.538208 1117.537598,846.575684" />
				<polygon fill="#E77CE3" stroke="none" fill-opacity="1" points="941.840027,1381.717896 905.654358,1378.595581 935.007141,1152.507080 951.648438,1153.942993" />
				<polygon fill="#E77CE3" stroke="none" fill-opacity="1" points="639.913086,684.829102 664.753052,658.331421 824.219666,821.266968 812.796143,833.452881" />
				<polygon fill="#E77CE3" stroke="none" fill-opacity="1" points="1280.086914,684.829102 1302.557129,713.363892 1117.537598,846.575684 1107.203857,833.452881" />
				<polygon fill="#E77CE3" stroke="none" fill-opacity="1" points="978.160034,1381.717896 941.840027,1381.717896 951.648438,1153.942993 968.351562,1153.942993" />
				<polygon fill="#E77CE3" stroke="none" fill-opacity="1" points="617.442932,713.363892 639.913086,684.829102 812.796143,833.452881 802.462341,846.575684" />
				<polygon fill="#E77CE3" stroke="none" fill-opacity="1" points="1255.246948,658.331421 1280.086914,684.829102 1107.203857,833.452881 1095.780273,821.266968" />
				<polygon fill="#E77CE3" stroke="none" fill-opacity="1" points="1014.345581,1378.595581 978.160034,1381.717896 968.351562,1153.942993 984.992859,1152.507080" />
				<polygon fill="#E77CE3" stroke="none" fill-opacity="1" points="597.508911,743.724731 617.442932,713.363892 802.462341,846.575684 793.294983,860.538208" />
				<polygon fill="#E77CE3" stroke="none" fill-opacity="1" points="1228.221069,634.067505 1255.246948,658.331421 1095.780273,821.266968 1083.351440,810.108154" />
				<polygon fill="#E77CE3" stroke="none" fill-opacity="1" points="1050.128906,1372.374268 1014.345581,1378.595581 984.992859,1152.507080 1001.449097,1149.645996" />
				<polygon fill="#E77CE3" stroke="none" fill-opacity="1" points="580.258667,775.686890 597.508911,743.724731 793.294983,860.538208 785.361816,875.237183" />
				<polygon fill="#E77CE3" stroke="none" fill-opacity="1" points="1199.209351,612.216309 1228.221069,634.067505 1083.351440,810.108154 1070.009277,800.059204" />
				<polygon fill="#E77CE3" stroke="none" fill-opacity="1" points="1085.244873,1363.099854 1050.128906,1372.374268 1001.449097,1149.645996 1017.598450,1145.380859" />
				<polygon fill="#E77CE3" stroke="none" fill-opacity="1" points="565.819885,809.013550 580.258667,775.686890 785.361816,875.237183 778.721558,890.563721" />
				<polygon fill="#E77CE3" stroke="none" fill-opacity="1" points="1168.426514,592.940186 1199.209351,612.216309 1070.009277,800.059204 1055.852783,791.194214" />
				<polygon fill="#E77CE3" stroke="none" fill-opacity="1" points="1119.433594,1350.840942 1085.244873,1363.099854 1017.598450,1145.380859 1033.321533,1139.743164" />
				<polygon fill="#E77CE3" stroke="none" fill-opacity="1" points="554.299500,843.458008 565.819885,809.013550 778.721558,890.563721 773.423523,906.404236" />
				<polygon fill="#E77CE3" stroke="none" fill-opacity="1" points="1136.100830,576.381714 1168.426514,592.940186 1055.852783,791.194214 1040.986572,783.579224" />
				<polygon fill="#E77CE3" stroke="none" fill-opacity="1" points="1152.441772,1335.688477 1119.433594,1350.840942 1033.321533,1139.743164 1048.501465,1132.774658" />
				<polygon fill="#E77CE3" stroke="none" fill-opacity="1" points="545.782776,878.765503 554.299500,843.458008 773.423523,906.404236 769.506775,922.641663" />
				<polygon fill="#E77CE3" stroke="none" fill-opacity="1" points="1102.471191,562.663330 1136.100830,576.381714 1040.986572,783.579224 1025.520630,777.270386" />
				<polygon fill="#E77CE3" stroke="none" fill-opacity="1" points="1184.025391,1317.754517 1152.441772,1335.688477 1048.501465,1132.774658 1063.026367,1124.527100" />
				<polygon fill="#E77CE3" stroke="none" fill-opacity="1" points="540.332703,914.674316 545.782776,878.765503 769.506775,922.641663 767.000366,939.155762" />
				<polygon fill="#E77CE3" stroke="none" fill-opacity="1" points="1067.786621,551.886597 1102.471191,562.663330 1025.520630,777.270386 1009.569763,772.314209" />
				<polygon fill="#E77CE3" stroke="none" fill-opacity="1" points="1213.950317,1297.171875 1184.025391,1317.754517 1063.026367,1124.527100 1076.788574,1115.061523" />
				<polygon fill="#E77CE3" stroke="none" fill-opacity="1" points="537.989746,950.918640 540.332703,914.674316 767.000366,939.155762 765.922913,955.824036" />
				<polygon fill="#E77CE3" stroke="none" fill-opacity="1" points="1032.304199,544.131592 1067.786621,551.886597 1009.569763,772.314209 993.251709,768.747803" />
				<polygon fill="#E77CE3" stroke="none" fill-opacity="1" points="1241.994995,1274.093018 1213.950317,1297.171875 1076.788574,1115.061523 1089.685913,1104.447754" />
				<polygon fill="#E77CE3" stroke="none" fill-opacity="1" points="538.771240,987.230286 537.989746,950.918640 765.922913,955.824036 766.282227,972.523254" />
				<polygon fill="#E77CE3" stroke="none" fill-opacity="1" points="996.286499,539.455444 1032.304199,544.131592 993.251709,768.747803 976.687683,766.597412" />
				<polygon fill="#E77CE3" stroke="none" fill-opacity="1" points="1267.952026,1248.688477 1241.994995,1274.093018 1089.685913,1104.447754 1101.623169,1092.764648" />
				<polygon fill="#E77CE3" stroke="none" fill-opacity="1" points="542.671326,1023.340332 538.771240,987.230286 766.282227,972.523254 768.075867,989.129761" />
				<polygon fill="#E77CE3" stroke="none" fill-opacity="1" points="960.000000,537.892944 996.286499,539.455444 976.687683,766.597412 960.000000,765.878662" />
				<polygon fill="#E77CE3" stroke="none" fill-opacity="1" points="1291.628906,1221.146851 1267.952026,1248.688477 1101.623169,1092.764648 1112.511963,1080.098511" />
				<polygon fill="#E77CE3" stroke="none" fill-opacity="1" points="549.661194,1058.981445 542.671326,1023.340332 768.075867,989.129761 771.290405,1005.520691" />
				<polygon fill="#E77CE3" stroke="none" fill-opacity="1" points="1312.850708,1191.671753 1291.628906,1221.146851 1112.511963,1080.098511 1122.271484,1066.543213" />
				<polygon fill="#E77CE3" stroke="none" fill-opacity="1" points="559.689026,1093.889648 549.661194,1058.981445 771.290405,1005.520691 775.902100,1021.574585" />
				<polygon fill="#E77CE3" stroke="none" fill-opacity="1" points="1331.460083,1160.481445 1312.850708,1191.671753 1122.271484,1066.543213 1130.829712,1052.199219" />
				<polygon fill="#E77CE3" stroke="none" fill-opacity="1" points="572.680664,1127.806641 559.689026,1093.889648 775.902100,1021.574585 781.876770,1037.172607" />
				<polygon fill="#E77CE3" stroke="none" fill-opacity="1" points="1347.319336,1127.806641 1331.460083,1160.481445 1130.829712,1052.199219 1138.123169,1037.172607" />
				<polygon fill="#E77CE3" stroke="none" fill-opacity="1" points="588.539856,1160.481445 572.680664,1127.806641 781.876770,1037.172607 789.170227,1052.199219" />
				<polygon fill="#E77CE3" stroke="none" fill-opacity="1" points="1360.310913,1093.889648 1347.319336,1127.806641 1138.123169,1037.172607 1144.097900,1021.574585" />
				<polygon fill="#E77CE3" stroke="none" fill-opacity="1" points="607.149231,1191.671753 588.539856,1160.481445 789.170227,1052.199219 797.728455,1066.543213" />
				<polygon fill="#E77CE3" stroke="none" fill-opacity="1" points="1370.338745,1058.981445 1360.310913,1093.889648 1144.097900,1021.574585 1148.709473,1005.520691" />
				<polygon fill="#E77CE3" stroke="none" fill-opacity="1" points="628.370972,1221.146851 607.149231,1191.671753 797.728455,1066.543213 807.488037,1080.098511" />
				<polygon fill="#E77CE3" stroke="none" fill-opacity="1" points="1377.328735,1023.340332 1370.338745,1058.981445 1148.709473,1005.520691 1151.924072,989.129761" />
				<polygon fill="#E77CE3" stroke="none" fill-opacity="1" points="652.047974,1248.688477 628.370972,1221.146851 807.488037,1080.098511 818.376770,1092.764648" />
				<polygon fill="#E77CE3" stroke="none" fill-opacity="1" points="923.713562,539.455444 960.000000,537.892944 960.000000,765.878662 943.312317,766.597412" />
				<polygon fill="#E77CE3" stroke="none" fill-opacity="1" points="1381.228760,987.230286 1377.328735,1023.340332 1151.924072,989.129761 1153.717651,972.523254" />
				<polygon fill="#E77CE3" stroke="none" fill-opacity="1" points="678.004944,1274.093018 652.047974,1248.688477 818.376770,1092.764648 830.314087,1104.447754" />
				<polygon fill="#E77CE3" stroke="none" fill-opacity="1" points="887.695801,544.131592 923.713562,539.455444 943.312317,766.597412 926.748230,768.747803" />
				<polygon fill="#E77CE3" stroke="none" fill-opacity="1" points="1382.010254,950.918640 1381.228760,987.230286 1153.717651,972.523254 1154.077148,955.824036" />
				<polygon fill="#E77CE3" stroke="none" fill-opacity="1" points="706.049683,1297.171875 678.004944,1274.093018 830.314087,1104.447754 843.211487,1115.061523" />
				<polygon fill="#E77CE3" stroke="none" fill-opacity="1" points="852.213379,551.886597 887.695801,544.131592 926.748230,768.747803 910.430237,772.314209" />
				<polygon fill="#E77CE3" stroke="none" fill-opacity="1" points="1379.667358,914.674316 1382.010254,950.918640 1154.077148,955.824036 1152.999512,939.155762" />
				<polygon fill="#E77CE3" stroke="none" fill-opacity="1" points="735.974609,1317.754517 706.049683,1297.171875 843.211487,1115.061523 856.973572,1124.527100" />
				<polygon fill="#E77CE3" stroke="none" fill-opacity="1" points="817.528870,562.663330 852.213379,551.886597 910.430237,772.314209 894.479370,777.270386" />
				<polygon fill="#E77CE3" stroke="none" fill-opacity="1" points="1374.217285,878.765503 1379.667358,914.674316 1152.999512,939.155762 1150.493164,922.641663" />
				<polygon fill="#E77CE3" stroke="none" fill-opacity="1" points="767.558167,1335.688477 735.974609,1317.754517 856.973572,1124.527100 871.498474,1132.774658" />
				<polygon fill="#E77CE3" stroke="none" fill-opacity="1" points="783.899292,576.381714 817.528870,562.663330 894.479370,777.270386 879.013550,783.579224" />
				<polygon fill="#E77CE3" stroke="none" fill-opacity="1" points="1365.700439,843.458008 1374.217285,878.765503 1150.493164,922.641663 1146.576416,906.404236" />
				<polygon fill="#E77CE3" stroke="none" fill-opacity="1" points="800.566467,1350.840942 767.558167,1335.688477 871.498474,1132.774658 886.678589,1139.743164" />
				<polygon fill="#E77CE3" stroke="none" fill-opacity="1" points="751.573364,592.940186 783.899292,576.381714 879.013550,783.579224 864.147278,791.194214" />
				<polygon fill="#E77CE3" stroke="none" fill-opacity="1" points="1354.180054,809.013550 1365.700439,843.458008 1146.576416,906.404236 1141.278442,890.563721" />
			</g>
			<!--Layer: Circle_001_Lines-->
			<g id="Circle_001_Lines">
				<polyline stroke="#000000" stroke-opacity="1" fill="none" stroke-linecap="round" stroke-width="37" points="923.743164,539.798340 960.000000,538.237061 996.256836,539.798340 1032.245239,544.470581 1067.698730,552.219482 1102.354858,562.987305 1135.957153,576.694458 1168.256714,593.239380 1199.014282,612.499878 1228.002319,634.333130 1255.006226,658.577393 1279.825928,685.053467 1302.277832,713.564941 1322.195557,743.901001 1339.431763,775.837158 1353.858765,809.136597 1365.369751,843.553101 1373.879639,878.831665 1379.325195,914.711182 1381.666260,950.926086 1380.885254,987.208130 1376.988403,1023.288696 1370.004272,1058.900757 1359.984619,1093.780518 1347.003540,1127.669922 1331.157349,1160.317871 1312.563232,1191.482910 1291.358643,1220.933960 1267.700928,1248.453247 1241.765259,1273.836792 1213.743286,1296.896973 1183.842773,1317.462891 1152.285034,1335.382080 1119.303589,1350.522339 1085.142700,1362.771118 1050.055420,1372.038086 1014.301270,1378.254395 978.145203,1381.374023 941.854736,1381.374023 905.698730,1378.254395 869.944580,1372.038086 834.857239,1362.771118 800.696411,1350.522339 767.715027,1335.382080 736.157227,1317.462891 706.256653,1296.896973 678.234802,1273.836792 652.299072,1248.453247 628.641357,1220.933960 607.436829,1191.482910 588.842712,1160.317871 572.996399,1127.669922 560.015381,1093.780518 549.995728,1058.900757 543.011597,1023.288696 539.114624,987.208130 538.333801,950.926086 540.674866,914.711182 546.120422,878.831665 554.630249,843.553101 566.141235,809.136597 580.568298,775.837158 597.804443,743.901001 617.722229,713.564941 640.174011,685.053467 664.993774,658.577393 691.997620,634.333130 720.985657,612.499878 751.743347,593.239380 784.042847,576.694458 817.645081,562.987305 852.301208,552.219482 887.754761,544.470581 923.743164,539.798340" />
				<polyline stroke="#000000" stroke-opacity="1" fill="none" stroke-linecap="round" stroke-width="37" points="943.325928,766.755127 960.000000,766.036987 976.674072,766.755127 993.224731,768.903809 1009.529358,772.467285 1025.467163,777.419312 1040.920532,783.723145 1055.774536,791.331909 1069.919556,800.189575 1083.250854,810.230347 1095.669556,821.380005 1107.083862,833.555908 1117.409180,846.668091 1126.569092,860.619263 1134.495850,875.306274 1141.130615,890.620361 1146.424316,906.447937 1150.337891,922.672119 1152.842285,939.172668 1153.918823,955.827393 1153.559814,972.513062 1151.767578,989.106018 1148.555664,1005.483582 1143.947754,1021.524353 1137.977905,1037.109619 1130.690430,1052.124023 1122.139160,1066.456421 1112.387573,1080.000488 1101.507690,1092.656372 1089.580200,1104.329956 1076.693359,1114.935059 1062.942383,1124.393066 1048.429443,1132.633911 1033.261597,1139.596680 1017.551514,1145.229736 1001.415344,1149.491455 984.972473,1152.350220 968.344788,1153.784912 951.655273,1153.784912 935.027527,1152.350220 918.584717,1149.491455 902.448486,1145.229736 886.738342,1139.596680 871.570557,1132.633911 857.057617,1124.393066 843.306702,1114.935059 830.419800,1104.329956 818.492249,1092.656372 807.612366,1080.000488 797.860718,1066.456421 789.309509,1052.124023 782.021973,1037.109619 776.052185,1021.524353 771.444275,1005.483582 768.232300,989.106018 766.440186,972.513062 766.081116,955.827393 767.157715,939.172668 769.662109,922.672119 773.575623,906.447937 778.869385,890.620361 785.504211,875.306274 793.430908,860.619263 802.590820,846.668091 812.916138,833.555908 824.330383,821.380005 836.749146,810.230347 850.080444,800.189575 864.225403,791.331909 879.079590,783.723145 894.532776,777.419312 910.470703,772.467285 926.775330,768.903809 943.325928,766.755127" />
				<polyline stroke="#000000" stroke-opacity="1" fill="none" stroke-linecap="round" stroke-width="37" points="800.696411,1350.522339 886.738342,1139.596680" />
				<polyline stroke="#000000" stroke-opacity="1" fill="none" stroke-linecap="round" stroke-width="37" points="902.448486,1145.229736 834.857239,1362.771118" />
				<polyline stroke="#000000" stroke-opacity="1" fill="none" stroke-linecap="round" stroke-width="37" points="751.743347,593.239380 864.225403,791.331909" />
				<polyline stroke="#000000" stroke-opacity="1" fill="none" stroke-linecap="round" stroke-width="37" points="850.080444,800.189575 720.985657,612.499878" />
				<polyline stroke="#000000" stroke-opacity="1" fill="none" stroke-linecap="round" stroke-width="37" points="1353.858765,809.136597 1141.130615,890.620361" />
				<polyline stroke="#000000" stroke-opacity="1" fill="none" stroke-linecap="round" stroke-width="37" points="1134.495850,875.306274 1339.431763,775.837158" />
				<polyline stroke="#000000" stroke-opacity="1" fill="none" stroke-linecap="round" stroke-width="37" points="918.584717,1149.491455 869.944580,1372.038086" />
				<polyline stroke="#000000" stroke-opacity="1" fill="none" stroke-linecap="round" stroke-width="37" points="836.749146,810.230347 691.997620,634.333130" />
				<polyline stroke="#000000" stroke-opacity="1" fill="none" stroke-linecap="round" stroke-width="37" points="1126.569092,860.619263 1322.195557,743.901001" />
				<polyline stroke="#000000" stroke-opacity="1" fill="none" stroke-linecap="round" stroke-width="37" points="935.027527,1152.350220 905.698730,1378.254395" />
				<polyline stroke="#000000" stroke-opacity="1" fill="none" stroke-linecap="round" stroke-width="37" points="824.330383,821.380005 664.993774,658.577393" />
				<polyline stroke="#000000" stroke-opacity="1" fill="none" stroke-linecap="round" stroke-width="37" points="1117.409180,846.668091 1302.277832,713.564941" />
				<polyline stroke="#000000" stroke-opacity="1" fill="none" stroke-linecap="round" stroke-width="37" points="951.655273,1153.784912 941.854736,1381.374023" />
				<polyline stroke="#000000" stroke-opacity="1" fill="none" stroke-linecap="round" stroke-width="37" points="812.916138,833.555908 640.174011,685.053467" />
				<polyline stroke="#000000" stroke-opacity="1" fill="none" stroke-linecap="round" stroke-width="37" points="1107.083862,833.555908 1279.825928,685.053467" />
				<polyline stroke="#000000" stroke-opacity="1" fill="none" stroke-linecap="round" stroke-width="37" points="968.344788,1153.784912 978.145203,1381.374023" />
				<polyline stroke="#000000" stroke-opacity="1" fill="none" stroke-linecap="round" stroke-width="37" points="802.590820,846.668091 617.722229,713.564941" />
				<polyline stroke="#000000" stroke-opacity="1" fill="none" stroke-linecap="round" stroke-width="37" points="1095.669556,821.380005 1255.006226,658.577393" />
				<polyline stroke="#000000" stroke-opacity="1" fill="none" stroke-linecap="round" stroke-width="37" points="984.972473,1152.350220 1014.301270,1378.254395" />
				<polyline stroke="#000000" stroke-opacity="1" fill="none" stroke-linecap="round" stroke-width="37" points="793.430908,860.619263 597.804443,743.901001" />
				<polyline stroke="#000000" stroke-opacity="1" fill="none" stroke-linecap="round" stroke-width="37" points="1083.250854,810.230347 1228.002319,634.333130" />
				<polyline stroke="#000000" stroke-opacity="1" fill="none" stroke-linecap="round" stroke-width="37" points="1001.415344,1149.491455 1050.055420,1372.038086" />
				<polyline stroke="#000000" stroke-opacity="1" fill="none" stroke-linecap="round" stroke-width="37" points="785.504211,875.306274 580.568298,775.837158" />
				<polyline stroke="#000000" stroke-opacity="1" fill="none" stroke-linecap="round" stroke-width="37" points="1069.919556,800.189575 1199.014282,612.499878" />
				<polyline stroke="#000000" stroke-opacity="1" fill="none" stroke-linecap="round" stroke-width="37" points="1017.551514,1145.229736 1085.142700,1362.771118" />
				<polyline stroke="#000000" stroke-opacity="1" fill="none" stroke-linecap="round" stroke-width="37" points="778.869385,890.620361 566.141235,809.136597" />
				<polyline stroke="#000000" stroke-opacity="1" fill="none" stroke-linecap="round" stroke-width="37" points="1055.774536,791.331909 1168.256714,593.239380" />
				<polyline stroke="#000000" stroke-opacity="1" fill="none" stroke-linecap="round" stroke-width="37" points="1033.261597,1139.596680 1119.303589,1350.522339" />
				<polyline stroke="#000000" stroke-opacity="1" fill="none" stroke-linecap="round" stroke-width="37" points="773.575623,906.447937 554.630249,843.553101" />
				<polyline stroke="#000000" stroke-opacity="1" fill="none" stroke-linecap="round" stroke-width="37" points="1040.920532,783.723145 1135.957153,576.694458" />
				<polyline stroke="#000000" stroke-opacity="1" fill="none" stroke-linecap="round" stroke-width="37" points="1048.429443,1132.633911 1152.285034,1335.382080" />
				<polyline stroke="#000000" stroke-opacity="1" fill="none" stroke-linecap="round" stroke-width="37" points="769.662109,922.672119 546.120422,878.831665" />
				<polyline stroke="#000000" stroke-opacity="1" fill="none" stroke-linecap="round" stroke-width="37" points="1025.467163,777.419312 1102.354858,562.987305" />
				<polyline stroke="#000000" stroke-opacity="1" fill="none" stroke-linecap="round" stroke-width="37" points="1062.942383,1124.393066 1183.842773,1317.462891" />
				<polyline stroke="#000000" stroke-opacity="1" fill="none" stroke-linecap="round" stroke-width="37" points="767.157715,939.172668 540.674866,914.711182" />
				<polyline stroke="#000000" stroke-opacity="1" fill="none" stroke-linecap="round" stroke-width="37" points="1009.529358,772.467285 1067.698730,552.219482" />
				<polyline stroke="#000000" stroke-opacity="1" fill="none" stroke-linecap="round" stroke-width="37" points="1076.693359,1114.935059 1213.743286,1296.896973" />
				<polyline stroke="#000000" stroke-opacity="1" fill="none" stroke-linecap="round" stroke-width="37" points="766.081116,955.827393 538.333801,950.926086" />
				<polyline stroke="#000000" stroke-opacity="1" fill="none" stroke-linecap="round" stroke-width="37" points="993.224731,768.903809 1032.245239,544.470581" />
				<polyline stroke="#000000" stroke-opacity="1" fill="none" stroke-linecap="round" stroke-width="37" points="1089.580200,1104.329956 1241.765259,1273.836792" />
				<polyline stroke="#000000" stroke-opacity="1" fill="none" stroke-linecap="round" stroke-width="37" points="766.440186,972.513062 539.114624,987.208130" />
				<polyline stroke="#000000" stroke-opacity="1" fill="none" stroke-linecap="round" stroke-width="37" points="976.674072,766.755127 996.256836,539.798340" />
				<polyline stroke="#000000" stroke-opacity="1" fill="none" stroke-linecap="round" stroke-width="37" points="1101.507690,1092.656372 1267.700928,1248.453247" />
				<polyline stroke="#000000" stroke-opacity="1" fill="none" stroke-linecap="round" stroke-width="37" points="768.232300,989.106018 543.011597,1023.288696" />
				<polyline stroke="#000000" stroke-opacity="1" fill="none" stroke-linecap="round" stroke-width="37" points="960.000000,766.036987 960.000000,538.237061" />
				<polyline stroke="#000000" stroke-opacity="1" fill="none" stroke-linecap="round" stroke-width="37" points="1112.387573,1080.000488 1291.358643,1220.933960" />
				<polyline stroke="#000000" stroke-opacity="1" fill="none" stroke-linecap="round" stroke-width="37" points="771.444275,1005.483582 549.995728,1058.900757" />
				<polyline stroke="#000000" stroke-opacity="1" fill="none" stroke-linecap="round" stroke-width="37" points="1122.139160,1066.456421 1312.563232,1191.482910" />
				<polyline stroke="#000000" stroke-opacity="1" fill="none" stroke-linecap="round" stroke-width="37" points="776.052185,1021.524353 560.015381,1093.780518" />
				<polyline stroke="#000000" stroke-opacity="1" fill="none" stroke-linecap="round" stroke-width="37" points="1130.690430,1052.124023 1331.157349,1160.317871" />
				<polyline stroke="#000000" stroke-opacity="1" fill="none" stroke-linecap="round" stroke-width="37" points="782.021973,1037.109619 572.996399,1127.669922" />
				<polyline stroke="#000000" stroke-opacity="1" fill="none" stroke-linecap="round" stroke-width="37" points="1137.977905,1037.109619 1347.003540,1127.669922" />
				<polyline stroke="#000000" stroke-opacity="1" fill="none" stroke-linecap="round" stroke-width="37" points="789.309509,1052.124023 588.842712,1160.317871" />
				<polyline stroke="#000000" stroke-opacity="1" fill="none" stroke-linecap="round" stroke-width="37" points="1143.947754,1021.524353 1359.984619,1093.780518" />
				<polyline stroke="#000000" stroke-opacity="1" fill="none" stroke-linecap="round" stroke-width="37" points="797.860718,1066.456421 607.436829,1191.482910" />
				<polyline stroke="#000000" stroke-opacity="1" fill="none" stroke-linecap="round" stroke-width="37" points="1148.555664,1005.483582 1370.004272,1058.900757" />
				<polyline stroke="#000000" stroke-opacity="1" fill="none" stroke-linecap="round" stroke-width="37" points="807.612366,1080.000488 628.641357,1220.933960" />
				<polyline stroke="#000000" stroke-opacity="1" fill="none" stroke-linecap="round" stroke-width="37" points="1151.767578,989.106018 1376.988403,1023.288696" />
				<polyline stroke="#000000" stroke-opacity="1" fill="none" stroke-linecap="round" stroke-width="37" points="818.492249,1092.656372 652.299072,1248.453247" />
				<polyline stroke="#000000" stroke-opacity="1" fill="none" stroke-linecap="round" stroke-width="37" points="943.325928,766.755127 923.743164,539.798340" />
				<polyline stroke="#000000" stroke-opacity="1" fill="none" stroke-linecap="round" stroke-width="37" points="1153.559814,972.513062 1380.885254,987.208130" />
				<polyline stroke="#000000" stroke-opacity="1" fill="none" stroke-linecap="round" stroke-width="37" points="830.419800,1104.329956 678.234802,1273.836792" />
				<polyline stroke="#000000" stroke-opacity="1" fill="none" stroke-linecap="round" stroke-width="37" points="926.775330,768.903809 887.754761,544.470581" />
				<polyline stroke="#000000" stroke-opacity="1" fill="none" stroke-linecap="round" stroke-width="37" points="1153.918823,955.827393 1381.666260,950.926086" />
				<polyline stroke="#000000" stroke-opacity="1" fill="none" stroke-linecap="round" stroke-width="37" points="843.306702,1114.935059 706.256653,1296.896973" />
				<polyline stroke="#000000" stroke-opacity="1" fill="none" stroke-linecap="round" stroke-width="37" points="910.470703,772.467285 852.301208,552.219482" />
				<polyline stroke="#000000" stroke-opacity="1" fill="none" stroke-linecap="round" stroke-width="37" points="1152.842285,939.172668 1379.325195,914.711182" />
				<polyline stroke="#000000" stroke-opacity="1" fill="none" stroke-linecap="round" stroke-width="37" points="857.057617,1124.393066 736.157227,1317.462891" />
				<polyline stroke="#000000" stroke-opacity="1" fill="none" stroke-linecap="round" stroke-width="37" points="894.532776,777.419312 817.645081,562.987305" />
				<polyline stroke="#000000" stroke-opacity="1" fill="none" stroke-linecap="round" stroke-width="37" points="1150.337891,922.672119 1373.879639,878.831665" />
				<polyline stroke="#000000" stroke-opacity="1" fill="none" stroke-linecap="round" stroke-width="37" points="871.570557,1132.633911 767.715027,1335.382080" />
				<polyline stroke="#000000" stroke-opacity="1" fill="none" stroke-linecap="round" stroke-width="37" points="879.079590,783.723145 784.042847,576.694458" />
				<polyline stroke="#000000" stroke-opacity="1" fill="none" stroke-linecap="round" stroke-width="37" points="1146.424316,906.447937 1365.369751,843.553101" />
			</g>
		</g>
	</g>
	<g id="blender_frame_1">
		<g id="blender_object_GPencil.003">
			<!--Layer: Plane_001_Fills-->
			<g id="Plane_001_Fills">
				<polygon fill="#E7E7E7" stroke="none" fill-opacity="1" points="954.921204,918.103882 931.517761,952.151306 1331.580566,1232.584106 1355.420898,1198.536743" />
			</g>
			<!--Layer: Plane_001_Lines-->
			<g id="Plane_001_Lines">
				<polygon fill="#E7E7E7" stroke="none" fill-opacity="1" points="1355.467041,1198.564575 954.920654,918.099060" />
				<polygon fill="#E7E7E7" stroke="none" fill-opacity="1" points="954.920654,918.099060 931.077637,952.150391" />
				<polygon fill="#E7E7E7" stroke="none" fill-opacity="1" points="931.077637,952.150391 1331.624023,1232.615967" />
				<polygon fill="#E7E7E7" stroke="none" fill-opacity="1" points="1331.624023,1232.615967 1355.467041,1198.564575" />
			</g>
		</g>
	</g>
	<g id="blender_frame_1">
		<g id="blender_object_GPencil.002">
			<!--Layer: Plane_Fills-->
			<g id="Plane_Fills">
				<polygon fill="#E7E7E7" stroke="none" fill-opacity="1" points="931.568726,952.388672 988.431274,949.872681 988.431274,393.104980 931.568726,393.104980" />
			</g>
			<!--Layer: Plane_Lines-->
			<g id="Plane_Lines">
				<polygon fill="#E7E7E7" stroke="none" fill-opacity="1" points="931.565430,393.038696 931.565430,949.871521" />
				<polygon fill="#E7E7E7" stroke="none" fill-opacity="1" points="931.565430,949.871521 988.434570,949.871521" />
				<polygon fill="#E7E7E7" stroke="none" fill-opacity="1" points="988.434570,949.871521 988.434570,393.038696" />
				<polygon fill="#E7E7E7" stroke="none" fill-opacity="1" points="988.434570,393.038696 931.565430,393.038696" />
			</g>
		</g>
	</g>
</svg>
